<svg width="50" height="53" viewBox="0 0 50 53" fill="none" xmlns="http://www.w3.org/2000/svg">
<circle cx="19.0076" cy="27.0348" r="2.75555" transform="rotate(-18.73 19.0076 27.0348)" fill="#FEE4F3"/>
<circle cx="30.7733" cy="27.0348" r="2.75555" transform="rotate(-18.73 30.7733 27.0348)" fill="#FEE4F3"/>
<path d="M24.9802 5.59501C24.5057 5.59507 24.1329 5.18847 24.1328 4.74793L24.1662 0.850823C24.1661 0.376393 24.5388 0.00357445 25.0133 0.00350779C25.4877 0.00344113 25.8605 0.410043 25.8606 0.850585L25.8272 4.74769C25.8273 5.18823 25.4546 5.59494 24.9802 5.59501Z" fill="#011833"/>
<path d="M12.341 9.69715C12.0699 9.69719 11.7988 9.56167 11.6632 9.32448L9.42612 6.13933C9.15497 5.7666 9.25655 5.22438 9.62928 4.95323C10.002 4.68207 10.5442 4.78366 10.8154 5.15639L13.0524 8.34153C13.3236 8.71426 13.222 9.25649 12.8493 9.52764C12.6798 9.66322 12.5104 9.69713 12.341 9.69715Z" fill="#011833"/>
<path d="M4.548 20.4407C4.44633 20.4407 4.37856 20.4407 4.27689 20.4069L0.582936 19.1535C0.142375 19.018 -0.0949106 18.5098 0.0405789 18.0692C0.176068 17.6286 0.684352 17.3913 1.12491 17.5268L4.81887 18.7802C5.25943 18.9157 5.49671 19.4239 5.36122 19.8645C5.22572 20.2373 4.92076 20.4407 4.548 20.4407Z" fill="#011833"/>
<path d="M0.856342 34.8774C0.483575 34.8775 0.144664 34.6403 0.0429484 34.2676C-0.0926649 33.827 0.144483 33.3526 0.585006 33.217L4.31251 32.0643C4.75303 31.9286 5.22749 32.1658 5.36311 32.6063C5.49872 33.0468 5.26157 33.5213 4.82105 33.6569L1.09355 34.8096C1.02578 34.8774 0.958005 34.8774 0.856342 34.8774Z" fill="#011833"/>
<path d="M10.0753 47.5841C9.90585 47.5842 9.73641 47.5164 9.56695 47.4148C9.19415 47.1437 9.1263 46.6015 9.39735 46.2287L11.7352 43.1107C12.0062 42.7379 12.5484 42.67 12.9212 42.9411C13.294 43.2121 13.3619 43.7543 13.0908 44.1271L10.753 47.2452C10.5836 47.4824 10.3125 47.5841 10.0753 47.5841Z" fill="#011833"/>
<path d="M24.9869 52.4619C24.5125 52.4619 24.1397 52.0553 24.1396 51.6148L24.1729 47.7177C24.1729 47.2432 24.5456 46.8704 25.02 46.8704C25.4945 46.8703 25.8673 47.2769 25.8673 47.7174L25.834 51.6145C25.8341 52.089 25.4275 52.4618 24.9869 52.4619Z" fill="#011833"/>
<path d="M39.8966 47.6139C39.6255 47.614 39.3544 47.4784 39.2188 47.2412L36.9817 44.0561C36.7106 43.6834 36.8122 43.1411 37.1849 42.87C37.5576 42.5988 38.0998 42.7004 38.371 43.0732L40.608 46.2583C40.8792 46.631 40.7776 47.1732 40.4049 47.4444C40.2355 47.5461 40.066 47.6139 39.8966 47.6139Z" fill="#011833"/>
<path d="M49.1462 34.9386C49.0445 34.9386 48.9767 34.9386 48.8751 34.9047L45.1811 33.6514C44.7406 33.5159 44.5033 33.0076 44.6388 32.567C44.7742 32.1265 45.2825 31.8892 45.7231 32.0247L49.417 33.278C49.8576 33.4135 50.0949 33.9218 49.9594 34.3623C49.8239 34.7012 49.485 34.9385 49.1462 34.9386Z" fill="#011833"/>
<path d="M45.4169 20.4011C45.0441 20.4011 44.7052 20.164 44.6035 19.7912C44.4679 19.3507 44.705 18.8762 45.1456 18.7406L48.8731 17.5879C49.3136 17.4523 49.7881 17.6894 49.9237 18.13C50.0593 18.5705 49.8221 19.045 49.3816 19.1806L45.6541 20.3333C45.5863 20.4011 45.5186 20.4011 45.4169 20.4011Z" fill="#011833"/>
<path d="M37.6206 9.65982C37.4512 9.65984 37.2818 9.59209 37.1123 9.49045C36.7395 9.2194 36.6716 8.6772 36.9427 8.3044L39.2805 5.18639C39.5516 4.81358 40.0938 4.74573 40.4666 5.01678C40.8394 5.28783 40.9072 5.83003 40.6362 6.20284L38.2984 9.32085C38.129 9.55809 37.8579 9.65978 37.6206 9.65982Z" fill="#011833"/>
<path d="M25.0192 42.6683C15.9711 42.6696 8.58256 35.2831 8.58129 26.235C8.58002 17.187 15.9665 9.7984 25.0146 9.79713C34.0626 9.79586 41.4512 17.1824 41.4525 26.2304C41.4538 35.2785 34.0673 42.6671 25.0192 42.6683ZM25.0148 11.4915C16.8817 11.4927 10.2745 18.1017 10.2757 26.2348C10.2768 34.3679 16.8859 40.9751 25.019 40.974C33.152 40.9728 39.7593 34.3637 39.7581 26.2307C39.757 18.0976 33.114 11.4904 25.0148 11.4915Z" fill="#011833"/>
<path d="M25.0175 30.7398C22.442 30.7402 20.3407 29.08 20.3404 27.0128C20.3404 26.5384 20.7131 26.1655 21.1875 26.1655C21.6619 26.1654 22.0347 26.5381 22.0348 27.0126C22.035 28.1309 23.3906 29.0456 25.0172 29.0454C26.6439 29.0452 27.9992 28.0961 27.9991 27.0117C27.999 26.5373 28.3717 26.1645 28.8462 26.1644C29.3206 26.1643 29.6934 26.537 29.6935 27.0115C29.6938 29.0786 27.5929 30.7394 25.0175 30.7398Z" fill="#011833"/>
<path d="M20.9156 20.9807C20.4412 20.9808 20.0683 20.6081 20.0683 20.1336C20.0682 19.7609 19.7632 19.4559 19.3904 19.456C19.0177 19.456 18.7127 19.761 18.7128 20.1338C18.7128 20.6082 18.3401 20.9811 17.8657 20.9811C17.3913 20.9812 17.0184 20.6085 17.0184 20.1341C17.0182 18.8463 18.0686 17.7618 19.3902 17.7616C20.7118 17.7614 21.7625 18.8118 21.7627 20.1334C21.7627 20.6078 21.39 20.9806 20.9156 20.9807Z" fill="#011833"/>
<path d="M32.0991 20.979C31.6247 20.9791 31.2519 20.6064 31.2518 20.1319C31.2518 19.7592 30.9467 19.4542 30.574 19.4543C30.2012 19.4543 29.8963 19.7594 29.8963 20.1321C29.8964 20.6066 29.5237 20.9794 29.0492 20.9794C28.5748 20.9795 28.202 20.6068 28.2019 20.1324C28.2018 18.8446 29.2521 17.7601 30.5737 17.7599C31.8615 17.7597 32.946 18.8101 32.9462 20.1317C32.9463 20.6061 32.5736 20.9789 32.0991 20.979Z" fill="#011833"/>
</svg>
