<svg width="20" height="20" viewBox="0 0 20 20" fill="none" xmlns="http://www.w3.org/2000/svg">
<path d="M10 20C12.6522 20 15.1957 18.9464 17.0711 17.0711C18.9464 15.1957 20 12.6522 20 10C20 7.34784 18.9464 4.8043 17.0711 2.92893C15.1957 1.05357 12.6522 0 10 0C7.34784 0 4.8043 1.05357 2.92893 2.92893C1.05357 4.8043 0 7.34784 0 10C0 12.6522 1.05357 15.1957 2.92893 17.0711C4.8043 18.9464 7.34784 20 10 20V20ZM2.8875 6.55375C2.84133 6.36944 2.83778 6.17703 2.87713 5.99114C2.91648 5.80525 2.99769 5.63078 3.11458 5.48098C3.23148 5.33119 3.38098 5.21002 3.55173 5.12667C3.72249 5.04333 3.90999 5 4.1 5H7.5C7.83152 5 8.14946 5.1317 8.38388 5.36612C8.6183 5.60054 8.75 5.91848 8.75 6.25V6.395C9.15939 6.29696 9.57904 6.24828 10 6.25C10.4375 6.25 10.8625 6.3 11.25 6.395V6.25C11.25 5.91848 11.3817 5.60054 11.6161 5.36612C11.8505 5.1317 12.1685 5 12.5 5H15.9C16.09 5 16.2775 5.04333 16.4483 5.12667C16.619 5.21002 16.7685 5.33119 16.8854 5.48098C17.0023 5.63078 17.0835 5.80525 17.1229 5.99114C17.1622 6.17703 17.1587 6.36944 17.1125 6.55375L16.7237 8.10625C16.5886 8.6471 16.2765 9.12724 15.8371 9.47037C15.3977 9.8135 14.8562 9.99992 14.2988 10H13.75C13.1217 10.0002 12.5164 9.76372 12.0545 9.33775C11.5926 8.91178 11.3081 8.32752 11.2575 7.70125C10.8529 7.56272 10.4276 7.49465 10 7.5C9.50875 7.5 9.075 7.58 8.7425 7.70125C8.69192 8.32752 8.40738 8.91178 7.94551 9.33775C7.48364 9.76372 6.87831 10.0002 6.25 10H5.7025C5.14501 9.99992 4.60355 9.8135 4.16416 9.47037C3.72478 9.12724 3.41269 8.6471 3.2775 8.10625L2.8875 6.55375ZM6.21125 12.1875C6.59503 12.8527 7.14726 13.4052 7.81237 13.7892C8.47748 14.1732 9.232 14.3752 10 14.375C10.7682 14.3755 11.523 14.1735 12.1883 13.7895C12.8537 13.4055 13.4061 12.8529 13.79 12.1875C13.8307 12.1158 13.8852 12.053 13.9504 12.0025C14.0155 11.952 14.09 11.9148 14.1696 11.8932C14.2491 11.8716 14.3321 11.866 14.4139 11.8766C14.4956 11.8872 14.5744 11.9139 14.6458 11.9551C14.7172 11.9964 14.7797 12.0513 14.8298 12.1168C14.8799 12.1822 14.9165 12.257 14.9376 12.3367C14.9586 12.4163 14.9637 12.4994 14.9526 12.5811C14.9414 12.6627 14.9142 12.7414 14.8725 12.8125C14.3789 13.6679 13.6687 14.3783 12.8133 14.872C11.958 15.3657 10.9876 15.6254 10 15.625C9.01237 15.6254 8.04204 15.3657 7.18668 14.872C6.33132 14.3783 5.6211 13.6679 5.1275 12.8125C5.04593 12.669 5.02441 12.4991 5.06766 12.3398C5.1109 12.1806 5.21539 12.0449 5.35832 11.9623C5.50125 11.8798 5.67101 11.8572 5.83057 11.8994C5.99013 11.9415 6.12653 12.0451 6.21 12.1875H6.21125Z" fill="#CADD01"/>
</svg>
