<svg width="20" height="20" viewBox="0 0 20 20" fill="none" xmlns="http://www.w3.org/2000/svg">
<path d="M10 20C12.6522 20 15.1957 18.9464 17.0711 17.0711C18.9464 15.1957 20 12.6522 20 10C20 7.34784 18.9464 4.8043 17.0711 2.92893C15.1957 1.05357 12.6522 0 10 0C7.34784 0 4.8043 1.05357 2.92893 2.92893C1.05357 4.8043 0 7.34784 0 10C0 12.6522 1.05357 15.1957 2.92893 17.0711C4.8043 18.9464 7.34784 20 10 20V20ZM8.75 8.125C8.75 8.75125 8.545 8.62 8.23125 8.41875C8.025 8.28625 7.7725 8.125 7.5 8.125C7.2275 8.125 6.975 8.2875 6.76875 8.41875C6.455 8.62 6.25 8.75 6.25 8.125C6.25 7.09 6.81 6.25 7.5 6.25C8.19 6.25 8.75 7.09 8.75 8.125ZM15.4138 11.875C15.5235 12.065 15.5812 12.2806 15.5812 12.5C15.5812 12.7194 15.5235 12.935 15.4138 13.125C14.8653 14.0755 14.0762 14.8647 13.1258 15.4133C12.1754 15.9619 11.0973 16.2504 10 16.25C8.90287 16.2502 7.82503 15.9615 6.8749 15.413C5.92476 14.8644 5.13584 14.0753 4.5875 13.125C4.47784 12.9351 4.42009 12.7196 4.42003 12.5003C4.41998 12.281 4.47762 12.0655 4.58718 11.8756C4.69674 11.6856 4.85435 11.5278 5.0442 11.4179C5.23404 11.3081 5.44944 11.2502 5.66875 11.25H14.3313C14.5507 11.25 14.7662 11.3078 14.9562 11.4175C15.1463 11.5272 15.304 11.685 15.4138 11.875ZM13.2313 8.41875C13.025 8.28625 12.7725 8.125 12.5 8.125C12.2275 8.125 11.975 8.2875 11.7687 8.41875C11.455 8.62 11.25 8.75 11.25 8.125C11.25 7.09 11.81 6.25 12.5 6.25C13.19 6.25 13.75 7.09 13.75 8.125C13.75 8.75125 13.545 8.62 13.2313 8.41875V8.41875Z" fill="#FEE600"/>
</svg>
