<svg width="20" height="20" viewBox="0 0 20 20" fill="none" xmlns="http://www.w3.org/2000/svg">
<path d="M10 0C15.5229 0 20 4.47755 20 10.001C20 15.5234 15.5229 20 10 20C4.4771 20.001 0 15.5234 0 10.001C0 4.47755 4.4771 0 10 0ZM6.46271 12.7837C6.33802 12.6325 6.15911 12.5362 5.96427 12.5152C5.76943 12.4943 5.57414 12.5505 5.42021 12.6718C5.26628 12.7931 5.16593 12.9698 5.14065 13.1641C5.11537 13.3585 5.16716 13.555 5.28494 13.7116C5.84591 14.4258 6.56188 15.003 7.37874 15.3997C8.19559 15.7964 9.09194 16.0021 10 16.0014C11.8596 16.0014 13.5803 15.1485 14.7111 13.7176C14.7721 13.6404 14.8173 13.5518 14.8442 13.457C14.871 13.3623 14.8789 13.2632 14.8675 13.1654C14.856 13.0675 14.8254 12.9729 14.7774 12.887C14.7293 12.801 14.6648 12.7253 14.5876 12.6642C14.5103 12.6032 14.4218 12.5579 14.327 12.5311C14.2323 12.5043 14.1332 12.4963 14.0354 12.5078C13.9376 12.5193 13.843 12.5499 13.757 12.5979C13.671 12.646 13.5953 12.7104 13.5343 12.7877C13.1135 13.3225 12.5767 13.7547 11.9645 14.0516C11.3522 14.3485 10.6805 14.5024 10 14.5015C8.60228 14.5015 7.31054 13.8616 6.46271 12.7837V12.7837ZM7.0006 6.75132C6.83357 6.7466 6.66729 6.77542 6.5116 6.83608C6.3559 6.89674 6.21395 6.98801 6.09413 7.10449C5.97432 7.22098 5.87908 7.36031 5.81405 7.51424C5.74901 7.66817 5.7155 7.83359 5.7155 8.0007C5.7155 8.16781 5.74901 8.33323 5.81405 8.48716C5.87908 8.64109 5.97432 8.78042 6.09413 8.8969C6.21395 9.01339 6.3559 9.10466 6.5116 9.16532C6.66729 9.22598 6.83357 9.2548 7.0006 9.25007C7.3258 9.24087 7.6346 9.10521 7.86137 8.87191C8.08814 8.63861 8.215 8.32607 8.215 8.0007C8.215 7.67533 8.08814 7.36279 7.86137 7.12949C7.6346 6.89619 7.3258 6.76053 7.0006 6.75132ZM12.9994 6.75132C12.8324 6.7466 12.6661 6.77542 12.5104 6.83608C12.3547 6.89674 12.2127 6.98801 12.0929 7.10449C11.9731 7.22098 11.8779 7.36031 11.8128 7.51424C11.7478 7.66817 11.7143 7.83359 11.7143 8.0007C11.7143 8.16781 11.7478 8.33323 11.8128 8.48716C11.8779 8.64109 11.9731 8.78042 12.0929 8.8969C12.2127 9.01339 12.3547 9.10466 12.5104 9.16532C12.6661 9.22598 12.8324 9.2548 12.9994 9.25007C13.3246 9.24087 13.6334 9.10521 13.8602 8.87191C14.0869 8.63861 14.2138 8.32607 14.2138 8.0007C14.2138 7.67533 14.0869 7.36279 13.8602 7.12949C13.6334 6.89619 13.3246 6.76053 12.9994 6.75132Z" fill="#FF9F00"/>
</svg>
