<svg width="20" height="20" viewBox="0 0 20 20" fill="none" xmlns="http://www.w3.org/2000/svg">
<path d="M10 20C12.6522 20 15.1957 18.9464 17.0711 17.0711C18.9464 15.1957 20 12.6522 20 10C20 7.34784 18.9464 4.8043 17.0711 2.92893C15.1957 1.05357 12.6522 0 10 0C7.34784 0 4.8043 1.05357 2.92893 2.92893C1.05357 4.8043 0 7.34784 0 10C0 12.6522 1.05357 15.1957 2.92893 17.0711C4.8043 18.9464 7.34784 20 10 20V20ZM8.75 8.125C8.75 9.16 8.19 10 7.5 10C6.81 10 6.25 9.16 6.25 8.125C6.25 7.09 6.81 6.25 7.5 6.25C8.19 6.25 8.75 7.09 8.75 8.125ZM5.35625 15.5412C5.2127 15.4584 5.10796 15.3219 5.06506 15.1617C5.02216 15.0016 5.04462 14.831 5.1275 14.6875C5.6211 13.8321 6.33132 13.1217 7.18668 12.628C8.04204 12.1343 9.01237 11.8746 10 11.875C10.9876 11.8748 11.9578 12.1346 12.8131 12.6283C13.6684 13.122 14.3787 13.8322 14.8725 14.6875C14.9541 14.831 14.9756 15.0009 14.9323 15.1602C14.8891 15.3194 14.7846 15.4551 14.6417 15.5377C14.4988 15.6202 14.329 15.6428 14.1694 15.6006C14.0099 15.5585 13.8735 15.4549 13.79 15.3125C13.4061 14.6471 12.8537 14.0945 12.1883 13.7105C11.523 13.3265 10.7682 13.1245 10 13.125C9.23178 13.1245 8.47701 13.3265 7.81166 13.7105C7.14632 14.0945 6.59389 14.6471 6.21 15.3125C6.12712 15.456 5.99061 15.5608 5.8305 15.6037C5.67039 15.6466 5.4998 15.6241 5.35625 15.5412ZM12.5 10C11.81 10 11.25 9.16 11.25 8.125C11.25 7.09 11.81 6.25 12.5 6.25C13.19 6.25 13.75 7.09 13.75 8.125C13.75 9.16 13.19 10 12.5 10Z" fill="#FE0200"/>
</svg>
